<?xml version="1.0" encoding="UTF-8"?>
<svg width="335px" height="335px" viewBox="0 0 335 335" version="1.1" xmlns="http://www.w3.org/2000/svg" xmlns:xlink="http://www.w3.org/1999/xlink">
    <!-- Generator: Sketch 57.1 (83088) - https://sketch.com -->
    <title>004-social-media 2</title>
    <desc>Created with Sketch.</desc>
    <g id="Page-1" stroke="none" stroke-width="1" fill="none" fill-rule="evenodd">
        <g id="004-social-media" fill="#000000" fill-rule="nonzero">
            <path d="M167.999937,0.4999375 C260.507633,0.4999375 335.499937,75.4922419 335.499937,167.999937 C335.499937,260.507633 260.507633,335.499937 167.999937,335.499937 C75.4922419,335.499937 0.4999375,260.507633 0.4999375,167.999937 C0.4999375,75.4922419 75.4922419,0.4999375 167.999937,0.4999375 Z M208.443,132.061 C209.454,131.121 208.241,129.528 207.066,130.251 L207.066,130.251 L141.582,170.585 C139.069,172.133 137.891,175.164 138.699,178.003 L138.699,178.003 L145.779,202.878 C146.281,204.644 148.842,204.461 149.087,202.641 L149.087,202.641 L150.926,189 C151.273,186.431 152.5,184.061 154.399,182.296 L154.399,182.296 Z M234.665,104.301 L97.155,157.348 C93.765,158.656 93.791,163.462 97.195,164.733 L130.7,177.24 L143.67,218.948 C144.501,221.619 147.769,222.604 149.937,220.836 L168.614,205.61 C170.572,204.014 173.358,203.936 175.402,205.42 L209.091,229.879 C211.41,231.563 214.695,230.293 215.278,227.487 L239.953,108.788 C240.59,105.727 237.583,103.175 234.665,104.301 Z" id="Shape"></path>
        </g>
    </g>
</svg>