<svg xmlns="http://www.w3.org/2000/svg" xmlns:xlink="http://www.w3.org/1999/xlink" xmlns:fi="http://pattern.flaticon.com/" x="0" y="0" width="1920" height="500" viewBox="0 0 2240 583.3333333333334"><rect x="0px" y="0px" width="100%" height="100%" opacity="1" fill="#ffffff"/><defs><g transform="matrix(0.1697916491523753 0.04549553527192747 -0.04549553527192747 0.1697916491523753 318.18016954405044 294.8865013024708)" id="L1_225"><path fill="#efefef" d="M255.875,36.15c-64.95,0-117.79,52.84-117.79,117.79c0,4.755,3.854,8.608,8.608,8.608c4.754,0,8.608-3.853,8.608-8.608    c0-55.456,45.117-100.574,100.574-100.574c4.754,0,8.608-3.853,8.608-8.608C264.484,40.003,260.629,36.15,255.875,36.15z"/><path fill="#efefef" d="M462.227,142.696c-6.199-14.699-23.203-21.611-37.901-15.413c-6.89,2.906-12.07,8.186-14.99,14.489    C403.111,62.555,336.662,0,255.875,0c-80.629,0-146.97,62.308-153.419,141.302c-6.659-13.735-23.043-20.018-37.269-14.019    c-14.699,6.199-21.615,23.203-15.414,37.901c3.004,7.121,8.6,12.646,15.759,15.557c1.358,0.552,2.742,0.995,4.141,1.334    c13.291,88.953,87.781,155.928,177.594,159.97v152.738h-66.496c-4.754,0-8.608,3.853-8.608,8.608s3.854,8.608,8.608,8.608h150.474    c4.754,0,8.608-3.853,8.608-8.608s-3.854-8.608-8.608-8.608h-66.761V342.045c89.81-4.04,164.273-70.982,177.586-159.914    c1.607-0.374,3.194-0.879,4.745-1.533C461.511,174.398,468.427,157.396,462.227,142.696z M255.875,17.216    c75.39,0,136.725,61.334,136.725,136.724c0,75.391-61.334,136.725-136.725,136.725S119.151,229.331,119.151,153.94    C119.151,78.55,180.484,17.216,255.875,17.216z M80.984,164.734c-5.95,2.515-12.836-0.288-15.348-6.24    c-1.217-2.883-1.237-6.067-0.057-8.966c1.179-2.899,3.416-5.166,6.3-6.383c1.482-0.626,3.021-0.921,4.537-0.921    c4.572,0,8.925,2.693,10.81,7.161C89.737,155.338,86.937,162.223,80.984,164.734z M255.875,325.026    c-84.595,0-155.935-61.441-168.972-144.126c0.257-0.1,0.517-0.195,0.772-0.303c6.732-2.84,11.823-7.947,14.777-14.058    c6.431,79.013,72.781,141.342,153.422,141.342c80.799,0,147.256-62.574,153.464-141.807c3.086,6.682,8.48,11.88,15.332,14.667    c0.063,0.025,0.127,0.047,0.19,0.072C411.861,263.549,340.518,325.026,255.875,325.026z M440.122,164.735    c-5.95,2.512-12.836-0.289-15.348-6.241v0.001c-2.511-5.953,0.289-12.839,6.242-15.349c5.951-2.511,12.836,0.29,15.348,6.242    C448.875,155.339,446.074,162.225,440.122,164.735z"/></g><g transform="matrix(0.03906242549419403 0 0 0.03906242549419403 252.5 340)" id="L1_226"><path fill="#efefef" d="M388.333,8.339c-4.781-5.299-11.616-8.337-18.754-8.337H226.438c-5.02,0-9.087,4.069-9.087,9.087s4.068,9.087,9.087,9.087    H369.58c2.032,0,3.901,0.831,5.263,2.34c1.362,1.51,1.997,3.453,1.79,5.475l-35.107,341.661c-0.31,3.024-2.838,5.305-5.878,5.305    H176.353c-3.04,0-5.568-2.28-5.878-5.305L135.369,25.99c-0.208-2.021,0.428-3.966,1.79-5.475c1.362-1.508,3.231-2.34,5.263-2.34    h40.286c5.02,0,9.087-4.069,9.087-9.087S187.728,0,182.708,0h-40.286c-7.138,0-13.973,3.039-18.755,8.337    c-4.782,5.298-7.106,12.41-6.378,19.51l35.107,341.661c1.115,10.855,9.239,19.351,19.624,21.227v88.821    c0,17.89,14.555,32.445,32.445,32.445h103.069c17.891,0,32.445-14.555,32.445-32.445V421.31c0-5.019-4.068-9.087-9.087-9.087    c-5.02,0-9.087,4.069-9.087,9.087v58.246c0,7.868-6.402,14.271-14.271,14.271H204.465c-7.868,0-14.271-6.402-14.271-14.271V391.13    h145.453c12.391,0,22.692-9.296,23.956-21.622l35.107-341.661C395.441,20.748,393.117,13.636,388.333,8.339z"/><path fill="#efefef" d="M293.95,453.455h-75.898c-5.02,0-9.087,4.069-9.087,9.087c0,5.019,4.067,9.087,9.087,9.087h75.898    c5.02,0,9.087-4.069,9.087-9.087C303.037,457.524,298.969,453.455,293.95,453.455z"/><path fill="#efefef" d="M303.114,99.553H208.39c-10.156,0-18.418,8.262-18.418,18.418v133.378c0,10.156,8.262,18.418,18.418,18.418h94.725    c10.156,0,18.418-8.262,18.418-18.418V117.971C321.532,107.815,313.27,99.553,303.114,99.553z M303.358,251.349    c0,0.135-0.109,0.244-0.244,0.244H208.39c-0.134,0-0.244-0.109-0.244-0.244V117.971c0-0.135,0.109-0.244,0.244-0.244h94.725    c0.134,0,0.244,0.109,0.244,0.244V251.349z"/></g><g transform="matrix(0.0390625 0 0 0.0390625 77.5 340)" id="L1_227"><path fill="#efefef" d="M239.14,469.809l-3.852-12.209c-4.782-15.165-7.208-30.919-7.208-46.825V45.817c0-15.965-6.892-31.149-18.907-41.664    l-2.18-1.906c-3.777-3.303-9.518-2.919-12.823,0.858c-3.304,3.778-2.92,9.519,0.858,12.823l2.179,1.905    c8.07,7.062,12.698,17.261,12.698,27.985v364.96c0,17.762,2.708,35.355,8.052,52.291l3.851,12.208    c1.483,4.704,0.463,9.758-2.729,13.517c-2.829,3.332-6.973,5.167-11.329,5.024c-4.369-0.139-8.373-2.232-10.983-5.738    l-0.193-0.259c-2.427-3.261-3.348-7.415-2.526-11.397l9.568-46.333c2.122-10.27-0.097-21.098-6.087-29.708l-8.869-12.743    c-4.812-6.914-4.812-16.204,0-23.116l4.098-5.887c9.377-13.475,9.153-31.422-0.556-44.656l-4.105-5.597    c-5.251-7.159-5.251-16.778,0-23.936l3.94-5.372c9.838-13.413,9.949-31.518,0.277-45.052l-3.939-5.511    c-5.03-7.037-5.03-16.493,0-23.531l4.918-6.881c9.046-12.655,9.589-29.372,1.386-42.589l-30.149-48.573    c-2.648-4.266-8.25-5.575-12.513-2.929c-4.265,2.648-5.576,8.249-2.929,12.513l30.149,48.573    c4.321,6.963,4.035,15.77-0.731,22.436l-4.918,6.881c-9.549,13.359-9.549,31.309,0,44.668l3.939,5.511    c5.095,7.129,5.036,16.668-0.147,23.734l-3.939,5.371c-9.968,13.588-9.968,31.846-0.001,45.435l4.106,5.598    c5.114,6.972,5.232,16.427,0.292,23.524l-4.098,5.888c-9.131,13.122-9.131,30.756,0.001,43.879l8.868,12.744    c3.155,4.534,4.324,10.239,3.207,15.65l-9.569,46.334c-1.87,9.057,0.225,18.505,5.745,25.922l0.193,0.259    c5.936,7.978,15.042,12.736,24.98,13.053c0.355,0.012,0.709,0.018,1.063,0.018c9.544,0,18.5-4.134,24.706-11.445    C240.194,492.001,242.515,480.508,239.14,469.809z"/><path fill="#efefef" d="M362.759,469.809l-3.851-12.208c-4.782-15.169-7.208-30.923-7.208-46.825V45.817c0-15.964-6.891-31.149-18.907-41.664    l-2.18-1.906c-3.777-3.303-9.518-2.919-12.823,0.858c-3.304,3.778-2.92,9.519,0.858,12.823l2.177,1.905    c8.07,7.062,12.698,17.261,12.698,27.985v364.96c0,17.758,2.708,35.352,8.051,52.291l3.851,12.208    c1.483,4.705,0.464,9.758-2.729,13.517c-2.829,3.334-6.95,5.174-11.328,5.024c-4.369-0.139-8.374-2.232-10.969-5.718l-0.207-0.28    c-2.428-3.262-3.349-7.415-2.526-11.396c0.095-0.459,0.154-0.926,0.177-1.393l2.377-48.431h-0.001    c0.938-10.717,0.711-69.084-0.124-189.798c-0.126-18.227-0.242-35.012-0.324-48.772c-0.116-19.903-5.729-39.365-16.23-56.284    l-15.398-24.808c-2.647-4.266-8.249-5.575-12.513-2.929c-4.265,2.647-5.576,8.249-2.929,12.513l15.398,24.808    c8.732,14.071,13.4,30.256,13.497,46.807c0.08,13.764,0.196,30.557,0.324,48.791c0.493,71.269,1.237,178.857,0.267,187.686    c-0.062,0.362-0.103,0.728-0.121,1.094l-2.346,47.786c-1.608,8.827,0.52,17.961,5.875,25.155l0.207,0.28    c5.937,7.978,15.044,12.736,24.983,13.053c0.354,0.012,0.706,0.018,1.06,0.018c9.544,0,18.5-4.135,24.705-11.445    C363.813,492.003,366.134,480.509,362.759,469.809z"/></g><g transform="matrix(0.078125 0 0 0.078125 67.5 67.5)" id="L1_228"><path fill="#efefef" d="M466.978,200.728h-4.441c1.979-9.991,0.948-20.341-3.098-29.933c-11.044-26.178-41.322-38.49-67.5-27.451    c-26.178,11.042-38.491,41.322-27.45,67.5c5.349,12.681,15.316,22.52,28.065,27.705c6.27,2.55,12.844,3.823,19.415,3.823    c6.79,0,13.576-1.361,20.02-4.078c9.879-4.167,18.021-11.146,23.593-20.049h11.397c15.166,0,27.506,12.339,27.506,27.506v191.075    c0,15.166-12.339,27.507-27.506,27.507H45.023c-15.166,0-27.506-12.339-27.506-27.507V245.752    c0-15.166,12.339-27.506,27.506-27.506H326.87c4.837,0,8.759-3.922,8.759-8.759c0-4.837-3.922-8.759-8.759-8.759H45.023    C20.197,200.728,0,220.926,0,245.752v191.075c0,24.827,20.197,45.024,45.023,45.024h421.954c24.825,0,45.023-20.197,45.023-45.024    V245.752C512,220.926,491.803,200.728,466.978,200.728z M443.466,203.632c-3.422,8.414-9.915,14.994-18.286,18.523    c-8.369,3.53-17.613,3.591-26.028,0.168c-8.414-3.422-14.992-9.916-18.523-18.286c-7.288-17.278,0.84-37.264,18.117-44.551    c4.303-1.815,8.77-2.674,13.171-2.674c13.271,0,25.908,7.816,31.38,20.792C446.828,185.973,446.887,195.216,443.466,203.632z"/><path fill="#efefef" d="M416.056,254.992H95.944c-18.063,0-32.757,14.695-32.757,32.757v107.079c0,18.063,14.695,32.757,32.757,32.757h271.458    c4.837,0,8.759-3.92,8.759-8.759s-3.922-8.759-8.759-8.759H95.944c-8.404,0-15.24-6.836-15.24-15.24V287.749    c0-8.402,6.836-15.24,15.24-15.24h320.111c8.404,0,15.24,6.836,15.24,15.24v107.079c0,8.402-6.836,15.24-15.24,15.24    c-4.837,0-8.759,3.92-8.759,8.759s3.922,8.759,8.759,8.759c18.063,0,32.757-14.695,32.757-32.757V287.749    C448.813,269.687,434.118,254.992,416.056,254.992z"/><path fill="#efefef" d="M363.813,102.608c-8.594-20.374-32.159-29.961-52.537-21.365c-20.373,8.593-29.957,32.161-21.364,52.535    c4.163,9.869,11.921,17.528,21.843,21.563c4.88,1.985,9.996,2.977,15.11,2.977c5.284,0,10.566-1.059,15.581-3.174    c9.87-4.163,17.528-11.921,21.564-21.843C368.047,123.378,367.977,112.478,363.813,102.608z M347.784,126.7    c-2.273,5.588-6.585,9.957-12.144,12.302c-5.558,2.344-11.697,2.385-17.285,0.111c-5.589-2.273-9.958-6.585-12.303-12.144    c-4.838-11.474,0.559-24.747,12.033-29.587c5.559-2.346,11.697-2.385,17.286-0.112c5.588,2.273,9.957,6.585,12.302,12.144    C350.017,114.973,350.058,121.111,347.784,126.7z"/><path fill="#efefef" d="M453.309,48.162c-3.056-7.245-8.75-12.866-16.034-15.829c-7.284-2.963-15.284-2.91-22.531,0.146    c-7.245,3.056-12.866,8.75-15.829,16.034c-2.962,7.284-2.91,15.286,0.146,22.531c3.056,7.244,8.75,12.866,16.034,15.827    c3.583,1.457,7.339,2.185,11.093,2.185c3.878,0,7.757-0.778,11.438-2.33c7.245-3.056,12.866-8.75,15.829-16.034    C456.417,63.409,456.365,55.408,453.309,48.162z M430.818,70.587c-6.054,2.556-13.061-0.294-15.616-6.351    c-2.554-6.056,0.295-13.062,6.352-15.616c1.508-0.636,3.074-0.938,4.616-0.938c4.651,0,9.081,2.74,10.999,7.288    C439.724,61.027,436.874,68.033,430.818,70.587z"/><path fill="#efefef" d="M165.515,346.485c-2.65-4.261-6.817-7.738-12.757-10.634c-4.466-2.122-10.028-3.819-17.005-5.185l-0.415-0.033    c-6.107-1.144-11.273-2.956-14.191-4.978c-1.276-0.884-2.256-1.812-2.756-2.612c-0.355-0.568-0.576-1.175-0.576-2.438    c0-2.194,1.299-4.268,3.858-6.165c3.211-2.379,7.739-3.743,12.422-3.743c6.736,0,12.31,3.35,18.381,7.399    c1.794,1.195,3.932,1.606,6.025,1.154c2.079-0.448,3.842-1.685,4.92-3.415c2.455-3.528,1.503-8.451-2.169-11.007l-0.308-0.199    c-6.324-4.094-14.984-9.7-26.849-9.7c-8.098,0-15.847,2.381-21.838,6.715c-6.563,4.851-10.327,11.761-10.327,18.958    c0,3.884,1.048,7.614,3.034,10.789c2.603,4.143,6.612,7.517,11.913,10.027c4.234,2.008,9.444,3.585,15.928,4.827l0.406,0.03    c6.681,1.26,12.386,3.211,15.66,5.356c1.417,0.945,2.394,1.914,3.075,3.049c0.615,1.025,0.833,1.796,0.833,2.945    c-0.001,2.642-1.499,5.079-4.454,7.245c-3.561,2.611-8.661,4.11-14.015,4.11c-8.014,0.084-16.745-4.703-21.827-8.861    c-1.641-1.342-3.717-1.975-5.841-1.77c-2.138,0.202-4.056,1.217-5.399,2.858l-0.03,0.039c-2.66,3.442-2.104,8.468,1.262,11.222    c7.077,5.586,18.345,12.273,31.859,12.398c8.697,0,16.964-2.555,23.262-7.182c7.033-5.064,11.066-12.373,11.066-20.055    C168.663,353.691,167.544,349.732,165.515,346.485z"/><path fill="#efefef" d="M253.072,308.359c-7.525-8.408-18.746-13.429-30.02-13.429c-11.649,0-22.852,4.893-30.729,13.415    c-7.981,8.496-12.377,19.723-12.377,31.613c0,12.018,4.399,23.249,12.375,31.612c8.001,8.526,19.201,13.415,30.729,13.415    c11.166,0,22.389-5.023,29.998-13.405c8.142-8.537,12.625-19.766,12.625-31.622C265.674,328.239,261.199,317.018,253.072,308.359z     M240.764,359.679c-4.873,5.224-11.164,8.1-17.712,8.1c-6.958,0-13.249-2.8-18.221-8.128c-4.878-4.994-7.676-12.171-7.676-19.692    c0-7.48,2.803-14.708,7.703-19.841c4.871-5.22,11.162-7.979,18.193-7.979c6.62,0,12.911,2.834,17.712,7.977    c4.896,5.254,7.704,12.486,7.704,19.842C248.467,347.357,245.664,354.54,240.764,359.679z"/><path fill="#efefef" d="M345.627,373.604l-26.585-70.851c-1.348-3.293-4.56-5.434-7.991-5.298c-3.395-0.134-6.666,2.049-8.012,5.344    l-26.582,70.849c-1.533,4.446,0.663,9.219,5.068,10.888c0.921,0.307,1.823,0.451,2.839,0.451c3.466,0,6.556-2.079,7.89-5.34    l5.463-14.494h26.787l5.455,14.475c1.167,3.206,4.292,5.36,7.778,5.36c0.642,0,1.879-0.063,2.906-0.474    C344.979,382.867,347.177,378.094,345.627,373.604z M303.844,348.423l7.204-19.124l7.205,19.124H303.844z"/><path fill="#efefef" d="M388.586,297.335h-21.518c-4.612,0-8.363,3.752-8.363,8.363v70.924c0,4.611,3.751,8.363,8.363,8.363    c4.678,0,8.484-3.752,8.484-8.363v-24.335h13.034c15.217,0,27.597-12.273,27.597-27.356    C416.183,309.715,403.803,297.335,388.586,297.335z M388.586,335.441h-13.034v-21.259h13.034c5.924,0,10.646,4.735,10.751,10.719    C399.231,330.81,394.508,335.441,388.586,335.441z"/></g><g transform="matrix(0.078125 0 0 0.078125 242.5 67.5)" id="L1_229"><path fill="#efefef" d="M77.327,360.177c-21.89,0-39.698,17.808-39.698,39.698c0,21.89,17.808,39.698,39.698,39.698    c21.89,0,39.698-17.808,39.698-39.698C117.025,377.985,99.218,360.177,77.327,360.177z M77.327,420.964    c-11.629,0-21.089-9.461-21.089-21.089c0-11.629,9.46-21.089,21.089-21.089c11.629,0,21.089,9.46,21.089,21.089    C98.417,411.503,88.958,420.964,77.327,420.964z"/><path fill="#efefef" d="M381.919,360.177c-21.89,0-39.698,17.808-39.698,39.698c0,21.89,17.808,39.698,39.698,39.698    c21.89,0,39.698-17.808,39.698-39.698C421.617,377.985,403.809,360.177,381.919,360.177z M381.919,420.964    c-11.629,0-21.089-9.461-21.089-21.089c0-11.629,9.46-21.089,21.089-21.089c11.629,0,21.089,9.46,21.089,21.089    C403.009,411.503,393.548,420.964,381.919,420.964z"/><path fill="#efefef" d="M508.771,423.221c-3.892-3.353-9.767-2.918-13.123,0.974l-0.732,0.85c-11.815,13.702-29.956,19.128-46.842,14.849    c7.257-11.999,11.174-25.828,11.174-40.018c0-42.639-34.69-77.327-77.327-77.327c-26.436,0-49.807,13.342-63.758,33.638    l-81.235-78.211c-3.509-3.379-9.03-3.479-12.659-0.231l-16.471,14.743L35.211,53.825c-0.036-0.051-0.066-0.096-0.089-0.133    c0.069-0.081,0.165-0.162,0.254-0.22c0.034,0.029,0.074,0.065,0.119,0.109l270.927,264.91c3.676,3.591,9.566,3.522,13.157-0.154    c3.591-3.676,3.522-9.566-0.154-13.157l-31.792-31.282L439.106,64.74c5.867-8.101,4.628-18.721-2.944-25.255    c-7.572-6.535-18.261-6.203-25.414,0.786L229.624,217.225L48.498,40.27c-7.154-6.991-17.842-7.321-25.414-0.787    s-8.81,17.156-2.948,25.25l151.349,209.293l-58.575,57.227c-10.659-5.55-22.754-8.706-35.58-8.706    C34.69,322.547,0,357.235,0,399.875c0,18.505,6.641,36.413,18.698,50.421c14.717,17.1,36.086,26.908,58.631,26.908    c42.639,0,77.327-34.69,77.327-77.327c0-9.282-1.646-18.185-4.658-26.439l36.232-34.882c3.702-3.564,3.813-9.454,0.249-13.155    c-3.564-3.702-9.454-3.813-13.155-0.249l-32.237,31.036c-3.594-5.228-7.815-9.989-12.551-14.183l53.973-52.73l16.261,22.486    c1.544,2.136,3.923,3.516,6.543,3.799c2.616,0.282,5.238-0.561,7.201-2.319l17.729-15.869l79.007,76.066    c-3.012,8.252-4.658,17.157-4.658,26.439c0,42.639,34.69,77.327,77.327,77.327c20.18,0,39.404-7.878,53.772-21.79    c7.755,3.043,15.837,4.547,23.855,4.547c18.512,0,36.65-7.905,49.465-22.765l0.733-0.851    C513.098,432.45,512.662,426.575,508.771,423.221z M423.753,53.58c0.045-0.043,0.084-0.079,0.119-0.108    c0.089,0.056,0.185,0.139,0.254,0.218c-0.024,0.038-0.052,0.083-0.089,0.134L274.178,260.754l-31.24-30.521L423.753,53.58z     M136.047,399.875c0,32.378-26.341,58.719-58.719,58.719c-17.118,0-33.349-7.45-44.527-20.438    c-9.152-10.633-14.192-24.228-14.192-38.281c0-32.378,26.342-58.719,58.719-58.719    C109.705,341.155,136.047,367.496,136.047,399.875z M426.445,438.156c-11.179,12.989-27.408,20.438-44.527,20.438    c-32.376,0-58.718-26.341-58.718-58.719c0-32.378,26.342-58.719,58.719-58.719c32.377,0,58.719,26.341,58.719,58.719    C440.638,413.926,435.598,427.523,426.445,438.156z"/><circle fill="#efefef" cx="216" cy="260" r="9"/></g><g transform="matrix(0.13671928644180298 0 0 0.13671928644180298 315 140)" id="L1_230"><path fill="#efefef" d="M187.935,250.95c-39.146,0-70.992,31.846-70.992,70.992c0,23.241,11.409,45.045,30.521,58.328    c1.513,1.051,3.31,1.614,5.151,1.614h70.639c1.841,0,3.638-0.563,5.151-1.614c19.112-13.282,30.521-35.087,30.521-58.328    C258.927,282.796,227.081,250.95,187.935,250.95z M220.302,363.83h-64.737c-12.931-10.007-20.572-25.469-20.572-41.89    c0.002-29.19,23.751-52.939,52.941-52.939c29.191,0,52.939,23.748,52.939,52.939C240.874,338.362,233.233,353.823,220.302,363.83z    "/><path fill="#efefef" d="M97.249,58.531c-0.023,0-0.047,0-0.07,0l-39.422,0.301c-4.985,0.039-8.995,4.11-8.958,9.095    c0.039,4.962,4.071,8.958,9.025,8.958c0.023,0,0.047,0,0.07,0l39.422-0.301c4.985-0.039,8.995-4.11,8.958-9.095    C106.236,62.526,102.203,58.531,97.249,58.531z"/><circle fill="#efefef" cx="26" cy="68" r="9"/><circle fill="#efefef" cx="17" cy="19" r="9"/><circle fill="#efefef" cx="12" cy="125" r="9"/><path fill="#efefef" d="M117.48,25.179l-19.298-9.816c-4.442-2.259-9.878-0.491-12.137,3.954c-2.26,4.443-0.49,9.878,3.952,12.137l19.298,9.816    c1.311,0.667,2.708,0.982,4.086,0.982c3.288,0,6.459-1.804,8.053-4.936C123.694,32.873,121.923,27.438,117.48,25.179z"/><circle fill="#efefef" cx="65" cy="9" r="9"/><path fill="#efefef" d="M124.751,93.025c-3.144-3.869-8.829-4.458-12.698-1.314l-16.805,13.651c-3.869,3.144-4.458,8.828-1.314,12.697    c1.784,2.196,4.387,3.335,7.012,3.335c2,0,4.013-0.661,5.687-2.021l16.805-13.651C127.306,102.578,127.894,96.894,124.751,93.025z    "/><circle fill="#efefef" cx="76" cy="132" r="9"/><circle fill="#efefef" cx="187" cy="59" r="9"/><path fill="#efefef" d="M500.821,201.531c-17.648-37.044-62.144-52.826-99.189-35.178c-6.604,3.146-12.517,7.157-17.7,11.816l-4.997-10.489    c-0.215-0.453-0.15-0.859-0.058-1.12c0.093-0.261,0.298-0.617,0.751-0.833l35.382-16.855c0.729-0.35,1.605-0.037,1.953,0.692    c2.143,4.5,7.529,6.409,12.032,4.266c4.501-2.145,6.411-7.53,4.266-12.032c-2.242-4.707-6.184-8.258-11.098-10.001    c-4.914-1.743-10.212-1.467-14.919,0.775l-11.219,5.345c-17.508-29.48-42.578-53.649-72.982-70.198    c-30.244-16.462-63.95-24.363-98.049-23.124V33.575c0-10.117-8.23-18.348-18.346-18.348h-37.526    c-10.117,0-18.346,8.231-18.346,18.348v87.898h-18.253c-11.613,0-21.062,9.449-21.062,21.062v33.742    c-56.924,28.249-96.149,86.989-96.149,154.728c0,51.169,22.75,99.475,61.553,132.132c-5.927,5.102-9.691,12.65-9.691,21.065    c0,15.328,12.47,27.798,27.798,27.798h185.827c15.328,0,27.798-12.47,27.798-27.798c0-8.391-3.743-15.92-9.64-21.021    c38.834-32.657,61.603-80.985,61.603-132.175c0-95.185-77.439-172.624-172.624-172.624c-20.497,0-40.167,3.599-58.422,10.184    v-26.031c0-1.658,1.35-3.009,3.009-3.009H159.8h56.166h27.279c1.658,0,3.009,1.35,3.009,3.009c0,4.985,4.041,9.026,9.026,9.026    c4.985,0,9.026-4.041,9.026-9.026c0-11.613-9.449-21.062-21.062-21.062h-18.253V62.656c31.086-1.247,61.84,5.91,89.42,20.922    c27.049,14.721,49.426,36.099,65.234,62.144l-7.784,3.708c-9.717,4.629-13.856,16.299-9.227,26.016l8.476,17.793    c-13.463,20.963-16.139,48.207-4.659,72.305c12.74,26.746,39.477,42.407,67.299,42.407c10.714,0,21.59-2.323,31.89-7.228    C502.688,283.072,518.469,238.576,500.821,201.531z M187.936,176.433c85.229-0.001,154.57,69.339,154.57,154.57    c0,50.082-24.353,97.094-65.206,126.102c-3.248,1.366-5.529,4.578-5.529,8.323c0,4.985,4.041,9.026,9.026,9.026    c5.374,0,9.745,4.371,9.745,9.745c0,5.374-4.371,9.745-9.745,9.745H94.971c-5.374,0-9.745-4.371-9.745-9.745    c0-5.374,4.371-9.745,9.745-9.745h115.316h26.074c4.985,0,9.026-4.041,9.026-9.026c0-4.985-4.041-9.026-9.026-9.026h-26.073    H97.561c-40.252-29.061-64.196-75.725-64.196-125.398C33.365,245.774,102.706,176.433,187.936,176.433z M206.94,54.029    c0,0.004,0,0.008,0,0.012v67.429h-38.113V33.575c0-0.162,0.131-0.295,0.294-0.295h37.526c0.162,0,0.294,0.132,0.294,0.295V54.029z     M486.76,252.376c-5.032,14.189-15.289,25.57-28.881,32.045c-7.802,3.716-16.037,5.476-24.153,5.475    c-21.072-0.001-41.324-11.863-50.974-32.12c-6.475-13.591-7.27-28.892-2.237-43.081c1.979-5.581,4.777-10.717,8.256-15.302    c0.01-0.013,0.02-0.025,0.03-0.039c5.365-7.055,12.363-12.785,20.595-16.706c7.802-3.716,16.037-5.475,24.153-5.475    c21.071,0,41.324,11.863,50.974,32.119C490.997,222.888,491.793,238.187,486.76,252.376z"/></g><path fill="#efefef" d="M501.546,161.19c-2.248-5.548-7.922-8.608-13.78-7.432c-5.895,1.175-9.974,6.198-9.921,12.205l0.001,0.147    c0,30.7-24.977,55.676-55.678,55.676c-18.664,0-35.998-9.286-46.366-24.841c-0.039-0.058-0.078-0.116-0.12-0.173l-2.284-3.257    c-0.053-0.076-0.108-0.152-0.164-0.225c-15.56-20.766-40.338-32.646-66.285-31.732c-18.938,0.655-37.038,8.246-50.95,21.137    c-13.912-12.891-32.012-20.482-50.95-21.137c-25.925-0.915-50.725,10.966-66.285,31.732c-0.056,0.075-0.11,0.149-0.164,0.225    l-2.284,3.257c-0.04,0.058-0.079,0.116-0.12,0.173c-10.368,15.555-27.701,24.841-46.366,24.841    c-30.7,0-55.678-24.976-55.678-55.676v-0.14c0.055-6.013-4.025-11.036-9.92-12.213c-5.866-1.174-11.532,1.885-13.78,7.43    C3.518,178.303,0,196.422,0,215.043c0,38.466,15.257,74.682,42.961,101.977c27.718,27.307,64.178,42.002,102.665,41.455    c43.337-0.646,83.732-20.802,110.373-54.515c26.641,33.713,67.037,53.869,110.373,54.515c0.724,0.011,1.444,0.017,2.167,0.017    c37.688,0,73.303-14.678,100.499-41.472C496.742,289.725,512,253.508,512,215.043C512,196.422,508.483,178.303,501.546,161.19z     M456.565,304.359c-24.3,23.939-56.264,36.812-89.928,36.346c-41.686-0.621-80.27-21.855-103.209-56.8    c-1.642-2.501-4.435-4.01-7.429-4.01s-5.786,1.507-7.429,4.01c-22.94,34.943-61.524,56.178-103.209,56.8    c-33.702,0.463-65.627-12.406-89.928-36.346c-24.285-23.927-37.66-55.648-37.66-89.316c0-8.558,0.847-16.992,2.527-25.242    c9.878,28.911,37.317,49.758,69.531,49.758c24.584,0,47.414-12.209,61.094-32.662l2.145-3.058    c12.081-16.05,31.277-25.221,51.367-24.52c17.187,0.595,33.505,8.596,44.772,21.951c1.688,2.001,4.174,3.157,6.793,3.157    s5.104-1.155,6.793-3.157c11.266-13.355,27.585-21.356,44.771-21.951c20.119-0.68,39.285,8.471,51.367,24.52l2.145,3.058    c13.679,20.455,36.51,32.662,61.094,32.662c32.215,0,59.652-20.847,69.531-49.758c1.68,8.248,2.527,16.683,2.527,25.242    C494.227,248.711,480.852,280.432,456.565,304.359z" transform="matrix(0.078125 0 0 0.078125 155 330)" id="L1_231"/><g transform="matrix(0.13206017156295854 -0.03538541632261026 0.03538541632261026 0.13206017156295854 132.13402191069724 150.2516833266311)" id="L1_232"><path fill="#efefef" d="M263.724,308.11c-1.596-1.74-3.85-2.731-6.211-2.731c-2.36,0-4.615,0.991-6.211,2.731    c-5.917,6.453-35.436,39.689-35.436,60.272c0,22.964,18.683,41.647,41.647,41.647s41.647-18.682,41.647-41.647    C299.16,347.799,269.641,314.563,263.724,308.11z M257.514,393.177c-13.673,0-24.795-11.122-24.795-24.795    c0-8.781,12.995-27.657,24.795-41.77c11.8,14.113,24.795,32.989,24.795,41.77C282.308,382.053,271.186,393.177,257.514,393.177z"/><path fill="#efefef" d="M351.102,281.57c0.042-28.114,0.063-42.225-22.788-65.078c-3.291-3.291-8.626-3.292-11.915,0    c-3.292,3.291-3.292,8.626-0.001,11.915c17.906,17.906,17.893,26.783,17.854,53.136l-0.003,3.82l0.006,193.485    c0,4.353-1.695,8.446-4.772,11.523s-7.17,4.774-11.523,4.774h-123.91c-8.985,0-16.296-7.31-16.296-16.296V285.366l-0.002-2.913    c-0.024-27.287-0.029-34.62,19.394-54.043c18.048-18.048,19.673-40.563,18.756-53.542h79.765v14.262    c0,4.667,3.784,8.451,8.451,8.451c4.668,0,8.451-3.784,8.451-8.451v-14.647c4.908-0.877,9.469-3.307,12.898-7.004    c4.357-4.695,6.58-11.05,6.104-17.438l-2.082-27.779c-0.224-11.203-10.728-20.256-23.608-20.256h-8.654    c-3.03-10.896-4.585-22.139-4.585-33.455c0-9.703-3.695-25.785-8.985-39.107C275.893,9.907,266.443,0,255.564,0    c-25.09,0-37.017,57.01-37.074,71.314c0,0.019,0,0.039,0,0.058c0,10.254-1.161,20.521-3.45,30.514l-0.027,0.119h-8.62    c-12.896,0-23.411,9.075-23.61,20.295l-1.864,27.927c-0.424,6.355,1.829,12.667,6.18,17.319c3.194,3.414,7.359,5.747,11.865,6.752    c0.957,9.276,0.645,27.81-13.739,42.193c-24.366,24.366-24.354,37.405-24.329,65.974l0.002,196.385    c0,18.278,14.869,33.148,33.148,33.148h123.909c8.854,0,17.179-3.448,23.439-9.709c6.261-6.261,9.71-14.586,9.709-23.441    l-0.006-193.484L351.102,281.57z M235.342,71.429c0-0.005,0-0.009,0-0.015c0-6.384,2.782-20.598,7.434-33.337    c6.159-16.86,11.692-21.034,12.788-21.226c1.324,0,6.725,4.459,12.427,18.814c4.88,12.287,7.796,26.369,7.796,32.885    c0,11.285,1.348,22.507,4.007,33.455h-47.543C234.298,91.953,235.337,81.686,235.342,71.429z M197.734,151.351l1.88-28.164    c0.012-0.188,0.019-0.374,0.019-0.562c0-1.5,2.696-3.768,6.761-3.768h13.339c0.631,0.149,1.282,0.23,1.943,0.23h69.281    c0.665,0,1.32-0.079,1.955-0.23h12.969c4.064,0,6.76,2.268,6.76,3.768c0,0.21,0.008,0.42,0.024,0.629l2.101,28.045    c0.131,1.754-0.454,3.429-1.65,4.717c-1.195,1.288-2.822,1.998-4.58,1.998h-2.093H206.208h-2.238c-1.748,0-3.368-0.703-4.562-1.98    C198.211,154.758,197.617,153.095,197.734,151.351z"/></g><g transform="matrix(0.09765662997961044 0 0 0.09765662997961044 62.5 237.5)" id="L1_233"><path fill="#efefef" d="M384.57,404.636c-19.152-8.077-41.308,0.931-49.387,20.085c-8.079,19.154,0.931,41.309,20.085,49.386    c4.769,2.011,9.722,2.964,14.601,2.964c14.711,0,28.719-8.664,34.787-23.049C412.732,434.87,403.723,412.715,384.57,404.636z     M387.165,446.646c-4.011,9.51-15.012,13.981-24.52,9.972c-4.606-1.942-8.18-5.563-10.064-10.194    c-1.884-4.632-1.851-9.719,0.091-14.325c3.013-7.142,9.967-11.443,17.272-11.443c2.422,0,4.882,0.473,7.25,1.472    C386.702,426.136,391.175,437.137,387.165,446.646z"/><path fill="#efefef" d="M437.191,412.014c-7.308-17.969-21.176-32.018-39.05-39.556c-22.477-9.479-47.089-6.726-66.42,5.202l-61.744-150.744    c-1.907-4.654-7.113-7.012-11.866-5.378c-4.573,1.573-9.597,1.086-13.783-1.332c-4.187-2.417-7.118-6.526-8.044-11.271    l-1.208-6.197c-0.003-0.015-0.006-0.03-0.009-0.047L200.365,24.741l46.844,111.452c0.001,0.005,0.004,0.009,0.006,0.014    l30.274,72.029c0.005,0.013,0.01,0.025,0.015,0.038L331.309,337.4c2.031,4.831,7.593,7.103,12.427,5.072    c4.831-2.031,7.103-7.594,5.072-12.427l-52.703-126.507l35.344-181.242c2.087-9.417-3.036-18.377-12.239-21.353    c-9.267-2.998-18.728,1.344-22.502,10.321l-40.709,96.854l-40.709-96.854c-3.772-8.976-13.235-13.321-22.501-10.321    c-9.205,2.976-14.327,11.938-12.239,21.355l35.342,181.239l-68.669,163.377c-11.271-0.812-22.654,1.022-33.367,5.541    c-17.874,7.539-31.741,21.587-39.049,39.556c-7.308,17.969-7.18,37.709,0.358,55.582c6.754,16.014,19.036,29.085,34.583,36.806    c10.179,5.057,21.249,7.598,32.336,7.596c9.581,0,19.178-1.898,28.22-5.712c17.873-7.539,31.741-21.588,39.049-39.557    s7.18-37.709-0.358-55.582c-3.289-7.796-7.817-14.828-13.367-20.889l49.384-120.567c1.987-4.85-0.335-10.393-5.186-12.38    c-4.852-1.987-10.393,0.337-12.38,5.186l-47.153,115.122c-3.431-2.113-7.049-3.972-10.855-5.52    c-1.087-0.442-2.182-0.854-3.281-1.243l59.574-141.738c2.57,2.962,5.633,5.519,9.106,7.523c6.28,3.627,13.441,5.221,20.532,4.682    l61.021,148.978c-5.484,5.972-10.058,12.957-13.386,20.844c-15.562,36.896,1.794,79.576,38.692,95.139    c9.044,3.814,18.639,5.714,28.22,5.714c11.086,0,22.156-2.542,32.336-7.598c15.547-7.723,27.828-20.794,34.583-36.806    C444.373,449.723,444.499,429.983,437.191,412.014z M311.626,24.774l-28.732,147.335l-16.601-39.497L311.626,24.774z     M177.729,399.258c0.161,0.161,0.333,0.311,0.506,0.462c5.668,5.162,10.202,11.531,13.269,18.806    c5.569,13.202,5.663,27.783,0.264,41.055c-5.397,13.273-15.641,23.648-28.842,29.218c-14.409,6.079-30.713,5.57-44.737-1.396    c-11.479-5.701-20.547-15.355-25.536-27.183c-5.569-13.202-5.663-27.783-0.264-41.055c5.397-13.272,15.641-23.648,28.842-29.216    c6.711-2.831,13.773-4.246,20.843-4.246c6.84,0,13.686,1.326,20.213,3.981C168.03,392.018,173.227,395.262,177.729,399.258z     M419.344,460.219c-4.988,11.828-14.058,21.482-25.536,27.183c-14.022,6.965-30.327,7.472-44.736,1.396    c-27.252-11.495-40.073-43.02-28.577-70.272c8.633-20.468,28.563-32.795,49.497-32.795c6.94,0,13.991,1.355,20.775,4.218    c13.202,5.568,23.445,15.945,28.843,29.216C425.007,432.437,424.913,447.017,419.344,460.219z"/><path fill="#efefef" d="M176.816,424.721c-8.078-19.154-30.234-28.162-49.386-20.085c-9.279,3.914-16.477,11.205-20.271,20.534    c-3.794,9.328-3.727,19.575,0.186,28.853c3.914,9.279,11.205,16.477,20.534,20.271c4.587,1.867,9.397,2.798,14.205,2.798    c4.968,0,9.934-0.996,14.647-2.984c9.278-3.914,16.477-11.205,20.271-20.534C180.795,444.246,180.728,434,176.816,424.721z     M159.418,446.422c-1.883,4.631-5.458,8.252-10.065,10.196c-4.606,1.942-9.693,1.977-14.325,0.092    c-4.631-1.883-8.252-5.458-10.194-10.064s-1.975-9.693-0.092-14.325c1.883-4.631,5.458-8.252,10.065-10.196    c2.368-0.998,4.826-1.472,7.248-1.472c7.303,0,14.258,4.302,17.271,11.443C161.268,436.704,161.301,441.791,159.418,446.422z"/><circle fill="#efefef" cx="256" cy="197" r="9"/></g><g transform="matrix(0.17578125 0 0 0.17578125 217.5 217.5)" id="L1_234"><path fill="#efefef" d="M438.461,40.219V8.727c0-4.82-3.907-8.727-8.727-8.727c-4.82,0-8.727,3.908-8.727,8.727v31.491    c0,72.965-59.361,132.325-132.325,132.325h-72.227c-11.901,0-48.113,0-48.113-69.213v-4.62c0.256-14.241,0.176-28.41,0.085-42.307    c-0.036-5.428-0.07-10.968-0.085-16.512V28.755c0-6.23,5.069-11.3,11.3-11.3h205.005c4.82,0,8.727-3.908,8.727-8.727    S389.466,0,384.646,0H179.641c-12.98,0-23.976,8.649-27.536,20.485l-0.609,0.003c-1.541,0.014-2.896,0.332-4.059,0.867    c-27.862,4.129-53.285,22.408-65.612,48.123c-0.73,1.47-3.035,7.233-3.455,8.073c-0.108,0.216-0.207,0.436-0.297,0.661    c-2.927,7.315-2.952,14.331-2.952,20.534c-0.168,4.468-0.401,8.937-0.649,13.663c-1.449,27.628-3.089,58.942,10.847,85.516    c2.238,4.268,7.514,5.915,11.782,3.676c4.268-2.239,5.915-7.514,3.676-11.782c-11.713-22.335-10.27-49.869-8.874-76.496    c0.243-4.639,0.495-9.436,0.667-14.09c0.003-0.108,0.006-0.215,0.006-0.323c0-5.227,0-9.756,1.595-13.938    c0.668-1.385,2.882-6.92,3.301-7.759c0.023-0.045,0.045-0.092,0.068-0.137c9.976-20.859,30.724-35.596,53.339-38.587    c0.001,0.531,0.005,1.059,0.006,1.59V98.83c-0.173,9.343-0.493,18.689-1.078,27.962c-1.399,0.68-9.858,8.4-10.458,9    c-12.638,12.637-20.734,29.233-23.415,47.992c-0.021,0.148-0.038,0.296-0.051,0.443c-0.738,8.115-0.593,15.831-0.372,23.306    h-13.526c-10.857,0-19.688,8.832-19.688,19.688v65.891c0,10.857,8.832,19.688,19.688,19.688h12.991l-6.443,25.216    c-12.257,47.97,2.359,99.023,38.143,133.239C174.156,497.53,210.226,512,248.246,512c0.719,0,3.444,0,4.162,0    c38.018,0,74.09-14.47,101.569-40.744c35.784-34.216,50.401-85.269,38.143-133.239c-0.099-0.385-0.223-0.763-0.374-1.132    l-9.813-24.084h12.572c10.857,0,19.688-8.832,19.688-19.688v-65.891c0-10.857-8.832-19.688-19.688-19.688h-13.852V160.31    c0-0.621-0.068-1.225-0.191-1.811C415.728,131.07,438.461,88.251,438.461,40.219z M115.837,295.348h-13.851    c-1.232-0.001-2.234-1.003-2.234-2.234v-65.891c0-1.232,1.002-2.233,2.233-2.233h13.852V295.348z M380.653,224.989h13.852    c1.232,0,2.233,1.002,2.233,2.233v65.891c0,1.232-1.002,2.233-2.233,2.233h-13.852V224.989z M133.248,186.033    c2.117-14.521,8.226-27.331,17.697-37.135c2.29-1.496,3.823-3.358,4.997-4.785c0.045-0.055,0.086-0.102,0.13-0.157    c2.148,7.187,4.954,13.575,8.424,19.117c11.184,17.866,28.666,26.924,51.96,26.924h72.227c27.109,0,52.559-7.239,74.518-19.887    v46.151h-0.001v87.813v1.714l-23.658,10.925c-5.702,2.633-11.597,5.047-17.522,7.174c-7.078,2.541-14.366,4.733-21.718,6.531    c-14.163-10.936-32.462-16.912-52.055-16.912c-19.429,0-37.619,5.894-51.743,16.68c-13.663-3.411-26.995-8.156-39.689-14.129    l-23.519-11.067v-0.916v-81.358v-6.455c0-0.436-0.043-0.862-0.105-1.282c-0.047-1.914-0.102-3.802-0.159-5.655    C132.786,201.371,132.555,193.855,133.248,186.033z M341.914,458.64c-24.215,23.154-56.002,35.905-89.506,35.905    c-0.719,0-3.444,0-4.162,0c-33.503,0-65.29-12.751-89.506-35.905c-31.236-29.866-43.992-74.43-33.294-116.302l4.961-19.416    l18.974,8.929c15.092,7.102,31.018,12.596,47.332,16.333c2.715,0.621,5.562-0.09,7.666-1.913    c11.22-9.729,27.209-15.309,43.867-15.309c16.789,0,32.861,5.649,44.095,15.501c1.608,1.409,3.659,2.166,5.754,2.166    c0.635,0,1.276-0.07,1.909-0.212c9.446-2.118,18.837-4.843,27.912-8.1c6.405-2.299,12.779-4.908,18.944-7.756l20.432-9.435    l8.062,19.783C385.792,384.614,373.008,428.909,341.914,458.64z"/><path fill="#efefef" d="M274.161,201.011c-19.102,0-34.643,15.54-34.643,34.643v51.618c0,4.82,3.908,8.727,8.727,8.727s8.727-3.907,8.727-8.727    v-51.618c0-9.478,7.71-17.188,17.188-17.188c4.82,0,8.727-3.908,8.727-8.727S278.981,201.011,274.161,201.011z"/><circle fill="#efefef" cx="295" cy="243" r="9"/><circle fill="#efefef" cx="192" cy="243" r="9"/>
<path fill="#efefef" d="M283.249,368.625c-1.285-4.646-6.092-7.369-10.736-6.087c-7.231,1.998-14.741,3.057-22.321,3.146    c-8.851,0.108-17.634-1.115-26.045-3.622c-4.621-1.377-9.479,1.252-10.858,5.869c-1.378,4.618,1.251,9.48,5.869,10.858    c9.699,2.892,19.779,4.356,29.983,4.356c0.418,0,0.837-0.002,1.256-0.007c9.081-0.107,18.085-1.378,26.764-3.776    C281.808,378.078,284.534,373.271,283.249,368.625z"/>
</g>
</defs><g fi:class="KUsePattern"><pattern id="pattern_L1_225" width="350" height="350" patternUnits="userSpaceOnUse"><use xlink:href="#L1_225" x="-350" y="-350"/><use xlink:href="#L1_225" x="0" y="-350"/><use xlink:href="#L1_225" x="350" y="-350"/><use xlink:href="#L1_225" x="-350" y="0"/><use xlink:href="#L1_225" x="0" y="0"/><use xlink:href="#L1_225" x="350" y="0"/><use xlink:href="#L1_225" x="-350" y="350"/><use xlink:href="#L1_225" x="0" y="350"/><use xlink:href="#L1_225" x="350" y="350"/></pattern><rect x="0" y="0" width="100%" height="100%" fill="url(#pattern_L1_225)"/></g><g fi:class="KUsePattern"><pattern id="pattern_L1_226" width="350" height="350" patternUnits="userSpaceOnUse"><use xlink:href="#L1_226" x="-350" y="-350"/><use xlink:href="#L1_226" x="0" y="-350"/><use xlink:href="#L1_226" x="350" y="-350"/><use xlink:href="#L1_226" x="-350" y="0"/><use xlink:href="#L1_226" x="0" y="0"/><use xlink:href="#L1_226" x="350" y="0"/><use xlink:href="#L1_226" x="-350" y="350"/><use xlink:href="#L1_226" x="0" y="350"/><use xlink:href="#L1_226" x="350" y="350"/></pattern><rect x="0" y="0" width="100%" height="100%" fill="url(#pattern_L1_226)"/></g><g fi:class="KUsePattern"><pattern id="pattern_L1_227" width="350" height="350" patternUnits="userSpaceOnUse"><use xlink:href="#L1_227" x="-350" y="-350"/><use xlink:href="#L1_227" x="0" y="-350"/><use xlink:href="#L1_227" x="350" y="-350"/><use xlink:href="#L1_227" x="-350" y="0"/><use xlink:href="#L1_227" x="0" y="0"/><use xlink:href="#L1_227" x="350" y="0"/><use xlink:href="#L1_227" x="-350" y="350"/><use xlink:href="#L1_227" x="0" y="350"/><use xlink:href="#L1_227" x="350" y="350"/></pattern><rect x="0" y="0" width="100%" height="100%" fill="url(#pattern_L1_227)"/></g><g fi:class="KUsePattern"><pattern id="pattern_L1_228" width="350" height="350" patternUnits="userSpaceOnUse"><use xlink:href="#L1_228" x="-350" y="-350"/><use xlink:href="#L1_228" x="0" y="-350"/><use xlink:href="#L1_228" x="350" y="-350"/><use xlink:href="#L1_228" x="-350" y="0"/><use xlink:href="#L1_228" x="0" y="0"/><use xlink:href="#L1_228" x="350" y="0"/><use xlink:href="#L1_228" x="-350" y="350"/><use xlink:href="#L1_228" x="0" y="350"/><use xlink:href="#L1_228" x="350" y="350"/></pattern><rect x="0" y="0" width="100%" height="100%" fill="url(#pattern_L1_228)"/></g><g fi:class="KUsePattern"><pattern id="pattern_L1_229" width="350" height="350" patternUnits="userSpaceOnUse"><use xlink:href="#L1_229" x="-350" y="-350"/><use xlink:href="#L1_229" x="0" y="-350"/><use xlink:href="#L1_229" x="350" y="-350"/><use xlink:href="#L1_229" x="-350" y="0"/><use xlink:href="#L1_229" x="0" y="0"/><use xlink:href="#L1_229" x="350" y="0"/><use xlink:href="#L1_229" x="-350" y="350"/><use xlink:href="#L1_229" x="0" y="350"/><use xlink:href="#L1_229" x="350" y="350"/></pattern><rect x="0" y="0" width="100%" height="100%" fill="url(#pattern_L1_229)"/></g><g fi:class="KUsePattern"><pattern id="pattern_L1_230" width="350" height="350" patternUnits="userSpaceOnUse"><use xlink:href="#L1_230" x="-350" y="-350"/><use xlink:href="#L1_230" x="0" y="-350"/><use xlink:href="#L1_230" x="350" y="-350"/><use xlink:href="#L1_230" x="-350" y="0"/><use xlink:href="#L1_230" x="0" y="0"/><use xlink:href="#L1_230" x="350" y="0"/><use xlink:href="#L1_230" x="-350" y="350"/><use xlink:href="#L1_230" x="0" y="350"/><use xlink:href="#L1_230" x="350" y="350"/></pattern><rect x="0" y="0" width="100%" height="100%" fill="url(#pattern_L1_230)"/></g><g fi:class="KUsePattern"><pattern id="pattern_L1_231" width="350" height="350" patternUnits="userSpaceOnUse"><use xlink:href="#L1_231" x="-350" y="-350"/><use xlink:href="#L1_231" x="0" y="-350"/><use xlink:href="#L1_231" x="350" y="-350"/><use xlink:href="#L1_231" x="-350" y="0"/><use xlink:href="#L1_231" x="0" y="0"/><use xlink:href="#L1_231" x="350" y="0"/><use xlink:href="#L1_231" x="-350" y="350"/><use xlink:href="#L1_231" x="0" y="350"/><use xlink:href="#L1_231" x="350" y="350"/></pattern><rect x="0" y="0" width="100%" height="100%" fill="url(#pattern_L1_231)"/></g><g fi:class="KUsePattern"><pattern id="pattern_L1_232" width="350" height="350" patternUnits="userSpaceOnUse"><use xlink:href="#L1_232" x="-350" y="-350"/><use xlink:href="#L1_232" x="0" y="-350"/><use xlink:href="#L1_232" x="350" y="-350"/><use xlink:href="#L1_232" x="-350" y="0"/><use xlink:href="#L1_232" x="0" y="0"/><use xlink:href="#L1_232" x="350" y="0"/><use xlink:href="#L1_232" x="-350" y="350"/><use xlink:href="#L1_232" x="0" y="350"/><use xlink:href="#L1_232" x="350" y="350"/></pattern><rect x="0" y="0" width="100%" height="100%" fill="url(#pattern_L1_232)"/></g><g fi:class="KUsePattern"><pattern id="pattern_L1_233" width="350" height="350" patternUnits="userSpaceOnUse"><use xlink:href="#L1_233" x="-350" y="-350"/><use xlink:href="#L1_233" x="0" y="-350"/><use xlink:href="#L1_233" x="350" y="-350"/><use xlink:href="#L1_233" x="-350" y="0"/><use xlink:href="#L1_233" x="0" y="0"/><use xlink:href="#L1_233" x="350" y="0"/><use xlink:href="#L1_233" x="-350" y="350"/><use xlink:href="#L1_233" x="0" y="350"/><use xlink:href="#L1_233" x="350" y="350"/></pattern><rect x="0" y="0" width="100%" height="100%" fill="url(#pattern_L1_233)"/></g><g fi:class="KUsePattern"><pattern id="pattern_L1_234" width="350" height="350" patternUnits="userSpaceOnUse"><use xlink:href="#L1_234" x="-350" y="-350"/><use xlink:href="#L1_234" x="0" y="-350"/><use xlink:href="#L1_234" x="350" y="-350"/><use xlink:href="#L1_234" x="-350" y="0"/><use xlink:href="#L1_234" x="0" y="0"/><use xlink:href="#L1_234" x="350" y="0"/><use xlink:href="#L1_234" x="-350" y="350"/><use xlink:href="#L1_234" x="0" y="350"/><use xlink:href="#L1_234" x="350" y="350"/></pattern><rect x="0" y="0" width="100%" height="100%" fill="url(#pattern_L1_234)"/></g></svg>
