<?xml version="1.0" encoding="UTF-8"?>
<svg width="1573px" height="615px" viewBox="0 0 1573 615" version="1.1" xmlns="http://www.w3.org/2000/svg" xmlns:xlink="http://www.w3.org/1999/xlink">
    <!-- Generator: Sketch 57.1 (83088) - https://sketch.com -->
    <title>б Сделано в Триада Сай </title>
    <desc>Created with Sketch.</desc>
    <g id="Page-1" stroke="none" stroke-width="1" fill="none" fill-rule="evenodd">
        <g id="б-Сделано-в-Триада-Сай-" transform="translate(0.000000, -56.083987)">
            <rect id="Rectangle" fill="#FFFFFF" x="0" y="56.0839874" width="1573" height="615"></rect>
            <g id="Триада-сайт-логотип-цветной" transform="translate(56.000000, 94.083987)" fill="#000000" fill-rule="nonzero">
                <g id="Layer1000">
                    <path d="M161.087922,361.716726 L243.740934,361.820148 L358.394755,162.904833 L577.329088,532.97205 L617.105965,459.548109 C532.659358,311.651909 448.587439,161.003551 360.402308,15.6887068 L161.087922,361.716726 Z" id="path12"></path>
                    <polygon id="path22" points="12.571858 446.99965 411.036769 446.989204 370.143136 374.40987 139.436939 373.88545 352.490559 1.33403107 267.589422 1.66988932"></polygon>
                    <polygon id="path32" points="359.461936 187.768268 316.895778 261.024542 432.277056 459.732491 4.54999916 459.56639 46.3735664 533.990594 559.572141 532.674322"></polygon>
                </g>
            </g>
            <path d="M764.171776,98.0839874 C775.984208,98.0839874 781.452926,105.766613 781.452926,117.400304 L781.452926,124.314668 L773.359223,124.314668 L773.359223,116.961297 C773.359223,110.046934 770.624864,105.876365 764.390525,105.876365 C758.26556,105.876365 755.421826,110.046934 755.421826,116.961297 L755.421826,157.569463 C755.421826,164.483827 758.26556,168.654395 764.390525,168.654395 C770.624864,168.654395 773.359223,164.483827 773.359223,157.569463 L773.359223,147.58205 L781.452926,147.58205 L781.452926,157.130456 C781.452926,168.764147 775.984208,176.446773 764.171776,176.446773 C752.468718,176.446773 747,168.764147 747,157.130456 L747,117.400304 C747,105.766613 752.468718,98.0839874 764.171776,98.0839874 Z M835.994279,186.214683 L827.681827,186.214683 L827.681827,175.678511 L796.400758,175.678511 L796.400758,186.214683 L788.19768,186.214683 L788.19768,168.105636 L793.119527,168.105636 C795.744511,165.142338 796.291383,161.63028 796.510132,156.910953 L799.46324,98.85225 L830.197438,98.85225 L830.197438,168.105636 L835.994279,168.105636 L835.994279,186.214683 Z M807.338195,106.644628 L804.822584,156.801201 C804.494461,162.288791 803.72884,165.581345 801.322604,168.105636 L821.556863,168.105636 L821.556863,106.644628 L807.338195,106.644628 Z M852.692101,132.875308 L871.395118,132.875308 L871.395118,140.557934 L852.692101,140.557934 L852.692101,167.886133 L875.660718,167.886133 L875.660718,175.678511 L844.1609,175.678511 L844.1609,98.85225 L875.660718,98.85225 L875.660718,106.644628 L852.692101,106.644628 L852.692101,132.875308 Z M915.217782,106.644628 L900.561617,106.644628 L898.811627,156.581697 C898.37413,168.764147 895.092899,175.678511 883.389841,175.788262 L881.967974,175.788262 L881.967974,167.995885 C889.077308,167.995885 890.280426,164.374075 890.499175,157.020704 L892.577288,98.85225 L923.748983,98.85225 L923.748983,175.678511 L915.217782,175.678511 L915.217782,106.644628 Z M961.556058,160.203507 L942.196794,160.203507 L939.243686,175.678511 L931.368732,175.678511 L946.024897,98.85225 L958.384201,98.85225 L973.040367,175.678511 L964.509166,175.678511 L961.556058,160.203507 Z M951.712365,108.510409 L943.290538,152.850136 L960.35294,152.850136 L951.712365,108.510409 Z M1007.78496,141.106693 L988.972567,141.106693 L988.972567,175.678511 L980.441366,175.678511 L980.441366,98.85225 L988.972567,98.85225 L988.972567,133.424067 L1007.78496,133.424067 L1007.78496,98.85225 L1016.31616,98.85225 L1016.31616,175.678511 L1007.78496,175.678511 L1007.78496,141.106693 Z M1025.13903,157.130456 L1025.13903,117.400304 C1025.13903,105.656862 1030.93587,98.0839874 1042.63893,98.0839874 C1054.45136,98.0839874 1060.2482,105.656862 1060.2482,117.400304 L1060.2482,157.130456 C1060.2482,168.764147 1054.45136,176.446773 1042.63893,176.446773 C1030.93587,176.446773 1025.13903,168.764147 1025.13903,157.130456 Z M1033.56085,116.961297 L1033.56085,157.569463 C1033.56085,164.593579 1036.51396,168.654395 1042.63893,168.654395 C1048.87326,168.654395 1051.717,164.593579 1051.717,157.569463 L1051.717,116.961297 C1051.717,110.046934 1048.87326,105.876365 1042.63893,105.876365 C1036.51396,105.876365 1033.56085,110.046934 1033.56085,116.961297 Z M1086.75326,98.85225 L1103.92503,98.85225 C1115.84684,98.85225 1120.54994,104.559344 1120.54994,115.863779 L1120.54994,119.485589 C1120.54994,127.607222 1118.25307,132.655805 1111.58124,134.741089 C1119.01869,136.826373 1121.86243,142.75297 1121.86243,151.203859 L1121.86243,157.679215 C1121.86243,169.203154 1116.28434,175.678511 1104.36253,175.678511 L1086.75326,175.678511 L1086.75326,98.85225 Z M1095.28446,131.448535 L1101.84692,131.448535 C1108.62813,131.448535 1112.12811,129.253499 1112.12811,121.241617 L1112.12811,116.741794 C1112.12811,109.937182 1109.83125,106.644628 1103.70628,106.644628 L1095.28446,106.644628 L1095.28446,131.448535 Z M1095.28446,167.886133 L1104.36253,167.886133 C1110.59687,167.886133 1113.4406,164.593579 1113.4406,157.459712 L1113.4406,150.6551 C1113.4406,142.09446 1110.05,139.240913 1102.72191,139.240913 L1095.28446,139.240913 L1095.28446,167.886133 Z M798.359079,395.182112 L779.265439,395.182112 L779.265439,240.677708 L747.687496,240.677708 L747.687496,223.237624 L829.937022,223.237624 L829.937022,240.677708 L798.359079,240.677708 L798.359079,395.182112 Z M845.245965,223.237624 L882.698874,223.237624 C909.625802,223.237624 921.130944,239.203898 921.130944,265.241206 L921.130944,285.874545 C921.130944,313.140028 908.40185,327.386857 881.230132,327.386857 L864.339604,327.386857 L864.339604,395.182112 L845.245965,395.182112 L845.245965,223.237624 Z M864.339604,310.192408 L881.230132,310.192408 C895.427967,310.192408 902.282094,303.560264 902.282094,287.10272 L902.282094,264.258666 C902.282094,248.538028 896.651918,240.677708 882.698874,240.677708 L864.339604,240.677708 L864.339604,310.192408 Z M1000.81972,258.363427 L982.215664,315.842013 L957.002268,395.182112 L937.174257,395.182112 L937.174257,223.237624 L954.064785,223.237624 L954.064785,351.459085 L969.241781,304.051534 L996.658289,223.237624 L1017.95504,223.237624 L1017.95504,395.182112 L1000.81972,395.182112 L1000.81972,258.363427 Z M1101.07088,360.54758 L1057.74301,360.54758 L1051.13367,395.182112 L1033.50877,395.182112 L1066.31067,223.237624 L1093.97197,223.237624 L1126.77386,395.182112 L1107.68022,395.182112 L1101.07088,360.54758 Z M1079.03976,244.853503 L1060.19091,344.090036 L1098.37819,344.090036 L1079.03976,244.853503 Z M1245.87387,418.763071 L1227.26981,418.763071 L1227.26981,395.182112 L1157.2598,395.182112 L1157.2598,418.763071 L1138.90053,418.763071 L1138.90053,378.233298 L1149.91609,378.233298 C1155.79106,371.601154 1157.01501,363.740834 1157.50459,353.17853 L1164.11393,223.237624 L1232.89999,223.237624 L1232.89999,378.233298 L1245.87387,378.233298 L1245.87387,418.763071 Z M1181.73883,240.677708 L1176.10865,352.932895 C1175.37428,365.214644 1173.66075,372.583694 1168.27536,378.233298 L1213.56156,378.233298 L1213.56156,240.677708 L1181.73883,240.677708 Z M1326.29702,360.54758 L1282.96915,360.54758 L1276.35981,395.182112 L1258.73491,395.182112 L1291.53681,223.237624 L1319.19811,223.237624 L1352,395.182112 L1332.90636,395.182112 L1326.29702,360.54758 Z M1304.2659,244.853503 L1285.41705,344.090036 L1323.60433,344.090036 L1304.2659,244.853503 Z M790.03621,456.70061 C816.473558,456.70061 828.71307,473.895059 828.71307,499.932367 L828.71307,515.407371 L810.598592,515.407371 L810.598592,498.949827 C810.598592,483.474823 804.478835,474.140694 790.525791,474.140694 C776.817536,474.140694 770.45299,483.474823 770.45299,498.949827 L770.45299,589.83477 C770.45299,605.309774 776.817536,614.643904 790.525791,614.643904 C804.478835,614.643904 810.598592,605.309774 810.598592,589.83477 L810.598592,567.481987 L828.71307,567.481987 L828.71307,588.85223 C828.71307,614.889539 816.473558,632.083987 790.03621,632.083987 C763.843653,632.083987 751.60414,614.889539 751.60414,588.85223 L751.60414,499.932367 C751.60414,473.895059 763.843653,456.70061 790.03621,456.70061 Z M909.870592,595.73001 L866.542717,595.73001 L859.93338,630.364543 L842.308482,630.364543 L875.110376,458.420055 L902.771674,458.420055 L935.573569,630.364543 L916.479929,630.364543 L909.870592,595.73001 Z M887.839469,480.035933 L868.990619,579.272466 L907.177899,579.272466 L887.839469,480.035933 Z M1007.67385,423.294252 L1019.42378,423.294252 C1019.42378,438.277986 1009.38738,447.36648 992.986435,447.36648 C976.585488,447.36648 967.038668,438.277986 966.549088,423.294252 L978.54381,423.294252 C979.278181,432.874016 984.908357,435.821636 992.986435,435.821636 C1001.06451,435.821636 1006.93948,432.874016 1007.67385,423.294252 Z M1015.26235,493.545857 L998.127031,547.585553 L971.444893,630.364543 L951.616882,630.364543 L951.616882,458.420055 L968.50741,458.420055 L968.50741,586.641516 L984.418776,537.023249 L1011.10091,458.420055 L1032.39767,458.420055 L1032.39767,630.364543 L1015.26235,630.364543 L1015.26235,493.545857 Z M1098.37819,630.364543 L1079.28455,630.364543 L1079.28455,475.860138 L1047.70661,475.860138 L1047.70661,458.420055 L1129.95613,458.420055 L1129.95613,475.860138 L1098.37819,475.860138 L1098.37819,630.364543 Z" id="СделановТриадаСайт" fill="#000000" fill-rule="nonzero"></path>
        </g>
    </g>
</svg>